<?xml version="1.0" standalone="no"?>
<!DOCTYPE svg PUBLIC "-//W3C//DTD SVG 20010904//EN"
 "http://www.w3.org/TR/2001/REC-SVG-20010904/DTD/svg10.dtd">
<svg version="1.0" xmlns="http://www.w3.org/2000/svg"
 width="1300.000000pt" height="1300.000000pt" viewBox="0 0 1300.000000 1300.000000"
 preserveAspectRatio="xMidYMid meet">

<g transform="translate(0.000000,1300.000000) scale(0.100000,-0.100000)"
fill="#000000" stroke="none">
<path d="M7412 9549 c-64 -8 -183 -37 -269 -64 -90 -29 -288 -135 -373 -199
-93 -70 -222 -199 -289 -289 -56 -76 -155 -265 -187 -358 -49 -142 -65 -235
-71 -409 -6 -195 8 -302 63 -470 156 -485 551 -833 1056 -931 133 -26 343 -28
483 -4 112 19 280 72 366 116 l57 28 10 -27 c6 -15 39 -67 75 -117 36 -49 77
-106 91 -125 321 -450 416 -585 416 -592 0 -4 -9 -8 -19 -8 -26 0 -50 -36 -43
-63 3 -12 22 -42 43 -67 167 -200 166 -198 193 -294 152 -545 -3 -838 -478
-900 -54 -8 -144 -12 -200 -11 -113 4 -267 22 -279 34 -5 5 0 57 9 116 23 139
10 258 -39 379 -65 158 -200 301 -349 369 -35 16 -38 20 -38 60 0 24 -9 78
-19 119 -65 254 -270 450 -529 509 -102 23 -276 12 -361 -23 -14 -6 -32 -12
-39 -14 -8 -1 -16 -5 -20 -8 -3 -4 -17 14 -32 39 -36 62 -119 157 -131 149 -5
-3 -8 -1 -7 5 4 14 -91 84 -155 115 -221 104 -486 86 -689 -47 -53 -35 -69
-42 -80 -32 -7 7 -48 27 -92 44 -43 18 -113 50 -155 71 -216 110 -465 107
-671 -7 -61 -34 -188 -149 -222 -201 -15 -22 -19 -23 -54 -13 -22 6 -77 14
-124 17 -235 17 -483 -103 -614 -297 -21 -31 -56 -64 -97 -90 -91 -59 -197
-172 -243 -258 -93 -177 -109 -384 -45 -560 12 -31 24 -91 29 -134 16 -158 63
-281 144 -380 l43 -53 -50 -54 c-231 -251 -320 -624 -242 -1010 19 -91 181
-606 201 -638 32 -50 112 -3 94 56 -5 15 -20 64 -34 110 -14 45 -28 87 -31 92
-18 29 10 1 66 -67 85 -103 95 -113 119 -113 25 0 60 34 60 58 0 9 -17 38 -38
63 -20 25 -53 65 -72 89 -19 24 -56 69 -82 99 -47 55 -56 71 -40 71 4 0 50 -7
103 -16 110 -19 146 -15 155 20 7 29 -2 62 -19 69 -7 3 -90 18 -184 33 l-171
29 -19 80 c-28 125 -26 391 6 505 41 152 101 264 209 387 l54 62 31 -23 c67
-50 217 -109 301 -118 25 -3 31 -11 56 -81 61 -166 185 -303 345 -381 89 -44
202 -76 268 -76 29 0 37 -5 48 -31 19 -48 140 -163 215 -205 36 -20 100 -50
142 -66 76 -30 247 -68 302 -68 17 0 30 -3 30 -7 0 -20 60 -652 65 -683 12
-80 36 -373 31 -378 -3 -2 -64 -8 -135 -11 -140 -7 -161 -15 -161 -61 0 -55
21 -61 186 -54 181 7 222 16 230 48 3 13 -8 163 -25 332 -17 170 -35 363 -41
429 -13 145 -29 297 -36 346 l-5 36 63 7 c67 8 168 30 206 46 19 8 37 4 87
-20 61 -29 64 -32 58 -60 -3 -19 0 -36 8 -47 8 -9 9 -14 2 -10 -8 5 -13 -9
-18 -45 -5 -44 -51 -626 -72 -903 -6 -91 5 -115 55 -115 15 -1 85 -5 156 -9
71 -5 137 -6 146 -4 27 7 42 48 28 78 -13 28 -26 31 -167 39 -52 4 -96 8 -99
11 -2 2 3 96 12 207 49 617 50 639 36 661 -12 20 -12 21 3 9 14 -12 16 -7 19
55 3 78 -11 72 138 55 233 -27 460 -23 693 14 322 50 572 165 685 316 30 40
38 45 100 56 89 17 212 75 288 137 170 140 257 326 256 554 l0 93 43 -5 c192
-27 468 -11 605 34 227 74 382 233 426 438 18 86 19 305 2 295 -10 -6 -10 -4
-2 7 12 15 -3 128 -30 224 l-15 50 27 -34 c24 -30 77 -103 320 -445 42 -60 86
-121 97 -136 11 -15 29 -40 40 -56 127 -185 164 -216 234 -195 62 18 99 84 80
141 -6 15 -77 122 -159 236 -81 115 -158 223 -170 239 -11 17 -53 75 -93 130
-40 55 -80 111 -89 125 -9 14 -32 46 -50 71 -18 26 -66 92 -105 148 -40 56
-73 108 -73 115 0 7 9 39 20 72 12 32 18 69 15 82 -8 31 -46 48 -74 33 -20
-11 -21 -10 -21 38 0 32 -6 55 -16 65 -29 29 -70 17 -89 -27 l-12 -29 -148
208 c-81 115 -165 232 -185 259 -21 28 -82 114 -138 191 l-100 142 70 58 c188
160 334 389 411 644 48 158 61 268 54 453 -6 180 -39 325 -108 484 -74 171
-150 283 -284 418 -185 188 -358 291 -611 364 -156 46 -384 62 -552 40z m389
-194 c428 -75 789 -387 924 -798 46 -141 68 -296 60 -417 -21 -328 -133 -581
-354 -801 -323 -321 -788 -429 -1219 -283 -56 19 -108 32 -114 28 -6 -4 -8 -3
-5 3 4 6 -24 27 -63 48 -201 105 -396 307 -503 520 -188 376 -156 843 82 1194
177 262 465 450 773 506 100 18 317 18 419 0z m-771 -2339 c0 -2 -8 -10 -17
-17 -16 -13 -17 -12 -4 4 13 16 21 21 21 13z m-1867 -477 c76 -27 193 -94 239
-137 64 -61 83 -165 47 -260 -13 -33 13 -90 44 -97 42 -11 79 -1 99 25 26 36
50 160 42 221 -4 31 -3 49 4 49 6 0 30 18 54 40 169 155 441 177 636 50 65
-41 107 -84 154 -153 l28 -40 -63 -61 c-125 -122 -187 -247 -223 -449 -17 -99
70 -155 137 -88 19 19 29 40 29 59 0 43 37 158 73 227 32 60 136 175 160 175
6 0 37 13 67 29 30 16 74 35 98 42 41 12 42 13 25 33 -17 20 -17 20 1 6 14
-11 47 -15 120 -16 114 0 180 -16 270 -65 137 -74 244 -231 265 -387 9 -72 1
-135 -20 -147 -5 -4 -7 -11 -3 -16 3 -5 2 -8 -3 -7 -4 2 -29 -20 -55 -48 -28
-30 -75 -65 -113 -84 -61 -31 -68 -32 -147 -27 -104 6 -190 39 -277 107 -74
57 -108 63 -146 25 -40 -39 -34 -89 15 -136 22 -21 70 -55 107 -75 212 -119
409 -124 575 -15 78 50 152 127 144 148 -3 7 1 10 9 7 7 -3 18 4 25 15 15 29
29 27 94 -19 73 -51 88 -65 136 -130 59 -79 80 -144 86 -269 5 -98 4 -109 -18
-146 -29 -49 -110 -93 -188 -101 -92 -10 -131 -51 -108 -115 21 -62 105 -70
247 -23 40 14 75 23 77 21 13 -12 25 -132 20 -186 -21 -204 -145 -370 -334
-446 -34 -14 -89 -28 -120 -31 -142 -15 -328 88 -383 211 -24 54 -34 143 -25
228 l7 65 61 6 c76 9 187 50 211 77 9 12 17 35 17 51 0 75 -51 98 -143 66 -79
-28 -161 -29 -205 -3 -40 24 -80 81 -102 145 -24 70 -40 90 -81 96 -52 9 -94
-29 -93 -83 3 -68 52 -170 116 -239 l59 -62 -11 -64 c-33 -205 17 -379 143
-500 52 -51 147 -108 222 -133 19 -6 18 -8 -10 -31 -55 -45 -169 -102 -270
-134 -92 -29 -108 -32 -195 -27 -154 8 -257 58 -317 153 -45 70 -63 152 -63
283 0 105 -1 113 -25 136 -31 32 -75 32 -112 1 -27 -23 -28 -28 -31 -133 -6
-193 46 -349 150 -452 l51 -51 -104 0 c-180 0 -382 31 -482 72 l-47 20 19 32
c36 58 53 141 49 235 l-3 88 34 34 c83 84 119 176 128 326 l6 102 -31 30 c-39
39 -83 41 -117 6 -22 -21 -25 -33 -25 -97 0 -154 -43 -239 -147 -290 -59 -29
-72 -31 -170 -32 -102 -2 -106 -2 -129 -29 -33 -38 -30 -72 7 -109 l30 -31
126 5 125 5 -4 -63 c-3 -50 -10 -72 -34 -106 -134 -192 -635 -161 -856 53 -27
25 -48 50 -48 55 0 5 21 22 46 38 63 40 149 120 195 182 123 167 131 382 20
575 l-37 65 23 35 c42 64 64 145 65 236 0 75 -3 88 -23 109 -30 32 -87 33
-116 2 -16 -18 -22 -40 -25 -103 -6 -99 -29 -149 -89 -189 -36 -24 -57 -30
-119 -33 -126 -7 -136 -10 -154 -48 -24 -50 -3 -98 50 -115 41 -14 171 -8 217
9 25 10 28 7 53 -34 73 -126 87 -238 41 -338 -31 -68 -118 -163 -200 -218 -54
-36 -65 -39 -126 -39 -186 0 -372 118 -458 291 -40 80 -41 102 -6 118 44 20
101 70 132 115 50 72 81 225 60 300 -18 64 -81 86 -133 45 -22 -18 -26 -28
-26 -74 0 -171 -70 -255 -212 -255 -170 0 -353 120 -433 284 -19 39 -38 86
-42 105 -6 33 -5 34 20 27 70 -17 118 -17 197 0 93 20 127 43 136 91 5 27 1
37 -25 64 -25 24 -38 30 -59 26 -155 -30 -160 -31 -200 -19 -56 17 -89 46
-119 105 -51 101 -42 258 24 395 37 77 150 190 229 230 51 26 67 40 92 85 37
65 120 148 187 187 105 60 312 92 361 55 10 -8 24 -15 31 -15 65 -1 200 -94
247 -169 59 -93 76 -241 36 -306 -40 -65 -150 -130 -279 -165 -38 -10 -42 -9
-106 40 -143 108 -322 168 -377 126 -30 -22 -40 -63 -24 -101 12 -27 23 -36
58 -45 219 -57 341 -168 428 -388 18 -46 41 -87 51 -92 49 -27 111 0 125 54 7
29 -17 107 -57 188 -16 32 -29 59 -29 62 0 2 12 7 28 11 101 25 244 113 302
186 49 62 70 130 70 229 0 155 -52 276 -170 391 l-78 76 61 63 c139 139 351
191 530 129z m422 -2819 c10 -11 16 -20 13 -20 -3 0 -13 9 -23 20 -10 11 -16
20 -13 20 3 0 13 -9 23 -20z"/>
<path d="M7495 9213 c-16 -2 -45 -6 -63 -9 -34 -5 -34 -5 -15 -27 18 -22 18
-22 -3 -4 -27 23 -47 22 -138 -8 -253 -83 -462 -257 -595 -497 -43 -79 -97
-246 -110 -341 -51 -372 104 -746 403 -971 81 -61 233 -139 254 -131 7 2 11 1
8 -4 -7 -10 116 -47 204 -61 482 -75 978 224 1129 680 93 278 73 562 -55 811
-57 111 -95 164 -179 250 -94 96 -172 152 -290 209 -176 85 -381 124 -550 103z
m345 -143 c165 -49 291 -124 407 -242 123 -126 199 -262 244 -436 22 -88 28
-291 10 -379 -73 -362 -356 -652 -715 -730 -99 -22 -290 -21 -389 1 -65 15
-81 15 -95 4 -15 -11 -16 -11 -4 3 11 15 5 20 -55 43 -97 37 -212 114 -296
198 -179 180 -269 400 -268 653 0 238 83 451 239 617 139 147 271 224 472 277
107 28 341 24 450 -9z"/>
<path d="M5952 5882 c-15 -16 -46 -51 -69 -79 -42 -51 -128 -114 -173 -128
-14 -4 -31 -12 -38 -18 -16 -12 -74 -11 -141 4 -74 16 -151 59 -230 128 -59
51 -82 65 -107 65 -63 0 -100 -65 -69 -123 39 -77 272 -225 355 -226 21 0 36
-3 33 -7 -2 -5 0 -8 5 -8 5 0 19 -33 31 -72 42 -144 23 -315 -50 -445 -35 -64
-36 -93 -5 -129 34 -40 91 -38 126 5 36 44 87 166 105 250 24 116 15 294 -20
382 -5 13 3 19 34 26 97 25 217 114 315 235 48 60 52 110 11 145 -37 32 -80
30 -113 -5z"/>
<path d="M6192 5280 c-39 -16 -55 -73 -47 -164 16 -185 81 -337 197 -461 85
-91 122 -104 169 -59 48 46 41 83 -29 157 -80 85 -99 114 -134 210 -23 62 -31
106 -35 180 -4 69 -11 104 -22 118 -19 23 -67 32 -99 19z"/>
</g>
</svg>
