<?xml version="1.0" encoding="UTF-8"?>
<svg version="1.1" xmlns="http://www.w3.org/2000/svg" width="512" height="512">
<path d="M0 0 C40.73258691 37.09857902 66.02515215 90.53183589 68.75683594 145.60009766 C71.35658136 205.24748248 50.85149524 260.57794808 10.75683594 304.60009766 C-27.93161451 345.99314124 -82.40228689 369.90666696 -138.90722656 371.81884766 C-198.08328558 373.11538802 -253.02557579 351.0823785 -295.70410156 310.33056641 C-335.85961751 271.24795203 -358.30392739 216.78829495 -359.52661133 160.9831543 C-360.09627253 102.0016777 -337.31308052 47.55856006 -296.32836914 5.44873047 C-227.86859712 -63.56894457 -117.13368472 -75.618845 0 0 Z " fill="#4A88DA" transform="translate(401.2431640625,98.39990234375)"/>
<path d="M0 0 C8.29420851 6.62963348 15.76268964 14.48071022 23.29711914 21.94702148 C24.64435357 23.27760929 25.99694277 24.60279638 27.35473633 25.92260742 C45.90979392 43.96441628 45.90979392 43.96441628 46.375 57.4375 C46.11413944 77.09690001 28.05402505 90.10200866 15.24023438 102.93676758 C13.54891613 104.63436095 11.85778451 106.33214028 10.16682434 108.03009033 C5.12204837 113.09396288 0.07307638 118.15363967 -4.97679114 123.21243361 C-6.88266001 125.12182071 -8.78821504 127.03152084 -10.69375452 128.94123665 C-19.10762284 137.37354176 -27.52283295 145.80450511 -35.94207001 154.23145008 C-37.99410447 156.28539396 -40.04613342 158.33934334 -42.09814453 160.39331055 C-42.60807058 160.90372033 -43.11799663 161.41413012 -43.64337498 161.94000687 C-51.91752261 170.22246864 -60.18310452 178.51342422 -68.44518 186.80792669 C-76.94812983 195.34397437 -85.45861728 203.87244785 -93.97653532 212.39355963 C-98.75091699 217.17010192 -103.52198376 221.94985364 -108.28462219 226.73810768 C-112.76075208 231.23751273 -117.24630432 235.72730564 -121.73922157 240.20994568 C-123.38376754 241.85399625 -125.02490971 243.50145997 -126.66232872 245.15260887 C-128.90255437 247.41056136 -131.15486275 249.65575032 -133.41052246 251.89826965 C-134.05130187 252.5500183 -134.69208127 253.20176695 -135.35227823 253.87326556 C-145.19148798 263.57519129 -155.98544384 266.21916324 -169.35546875 267.85986328 C-171.46768773 268.12100511 -173.57745305 268.39770156 -175.6875 268.67578125 C-204.17990288 272.31283828 -204.17990288 272.31283828 -216.5703125 263.0859375 C-222.96510712 257.282081 -227.59509634 250.09518676 -228.17822266 241.31713867 C-228.31983415 232.82375744 -227.50828918 224.46297923 -226.51074219 216.04223633 C-226.24927637 213.8063119 -226.01095518 211.56865778 -225.7734375 209.33007812 C-223.22142345 186.50193957 -209.70616364 175.55494473 -194.13256836 159.97143555 C-192.42976709 158.26399865 -190.72716109 156.55636699 -189.0247345 154.84855652 C-184.42409265 150.23486937 -179.82020291 145.62443498 -175.21524501 141.01505637 C-172.33561489 138.13265005 -169.45671718 135.24951295 -166.5779438 132.36625099 C-158.59205875 124.36819382 -150.60524225 116.37106939 -142.61496639 108.37739849 C-141.85066273 107.61276548 -141.85066273 107.61276548 -141.07091859 106.83268534 C-140.30492203 106.06636136 -140.30492203 106.06636136 -139.52345079 105.28455609 C-138.48885822 104.24952007 -137.4542672 103.21448249 -136.41967773 102.17944336 C-135.90649876 101.66604296 -135.39331979 101.15264255 -134.86458994 100.62368456 C-126.53619952 92.29133991 -118.2145949 83.95225302 -109.8958618 75.6102679 C-101.33568582 67.02635973 -92.76987682 58.44810647 -84.19840914 49.87547332 C-79.39352939 45.06967863 -74.59107474 40.26151586 -69.79484367 35.44708824 C-65.28782963 30.92360143 -60.7737169 26.40732158 -56.25407219 21.89645576 C-54.59869876 20.24185284 -52.94587999 18.58468945 -51.29584122 16.92476654 C-49.03984812 14.65605535 -46.77475021 12.3968327 -44.50718689 10.13969421 C-43.8596037 9.48405461 -43.2120205 8.82841502 -42.54481357 8.15290755 C-30.78681996 -3.47940117 -15.29201868 -8.85265097 0 0 Z " fill="#FDFDFE" transform="translate(347,123)"/>
<path d="M0 0 C2.45413706 1.26653435 4.13960263 2.88110536 6.10450459 4.8236599 C7.37020031 6.06548782 7.37020031 6.06548782 8.66146564 7.33240318 C10.01325161 8.68388702 10.01325161 8.68388702 11.39234638 10.06267357 C12.32129215 10.98400581 13.25023792 11.90533806 14.20733356 12.85458946 C16.17014198 14.80396234 18.1269223 16.75916149 20.08009052 18.71819115 C22.58647298 21.23048272 25.11065779 23.72400889 27.64008522 26.21306896 C30.04808719 28.5890544 32.4378513 30.98307422 34.82984638 33.37517357 C35.74115818 34.2700901 36.65246998 35.16500664 37.59139729 36.08704185 C38.41943363 36.92438362 39.24746998 37.76172539 40.10059834 38.62444115 C41.20502026 39.7257814 41.20502026 39.7257814 42.33175373 40.84937096 C43.77906513 42.91814232 43.77906513 42.91814232 43.70000076 44.69315243 C42.34428017 47.96858724 39.97333888 50.13635235 37.49140644 52.58675194 C36.93463317 53.14820518 36.3778599 53.70965842 35.80421472 54.2881254 C33.93280546 56.17152045 32.05083088 58.04398763 30.16871357 59.91667747 C28.82631808 61.2631371 27.48456185 62.61023432 26.14339924 63.95792198 C22.49529909 67.61972149 18.83774481 71.27194011 15.17804337 74.9221406 C11.35218866 78.74041075 7.53364691 82.56598286 3.71394062 86.39040184 C-2.70345869 92.81326287 -9.12716602 99.22976415 -15.55443096 105.64275169 C-22.98712537 113.05912581 -30.40895972 120.48623638 -37.82523084 127.91903079 C-44.18918361 134.29659481 -50.55896098 140.66829699 -56.93364787 147.03513181 C-60.74255295 150.83935753 -64.5493967 154.64558646 -68.35100842 158.45710182 C-71.92615438 162.04090959 -75.50855155 165.61730676 -79.09669209 169.18810272 C-80.41305413 170.50049546 -81.7268652 171.81545257 -83.0379343 173.13313293 C-84.82689355 174.93028003 -86.62482149 176.71794645 -88.42534161 178.50349998 C-88.9431552 179.02800574 -89.46096879 179.55251149 -89.9944737 180.09291136 C-94.78100839 184.80248549 -98.86112715 186.06463701 -105.41234112 186.76970482 C-106.60536846 186.89861107 -107.79839581 187.02751732 -109.02757549 187.16032982 C-110.26700909 187.28665794 -111.50644268 187.41298607 -112.78343487 187.54314232 C-114.60197979 187.74423607 -114.60197979 187.74423607 -116.45726299 187.94939232 C-137.16769422 190.12593094 -137.16769422 190.12593094 -142.40843487 187.04314232 C-147.17570515 181.45392889 -145.42664728 173.2673407 -145.00023174 166.3248806 C-144.70281417 162.7041664 -144.34760164 159.09392513 -143.97093487 155.48064232 C-143.86136456 154.25409935 -143.75179424 153.02755638 -143.63890362 151.76384544 C-143.51644268 150.57855247 -143.39398174 149.39325951 -143.26780987 148.17204857 C-143.16307354 147.11316429 -143.05833721 146.05428001 -142.95042706 144.96330833 C-141.46331309 138.75555314 -137.01676222 134.41911177 -132.60374737 130.02680016 C-131.76980953 129.1850073 -131.76980953 129.1850073 -130.91902447 128.32620853 C-129.06604579 126.4582996 -127.20605783 124.5975383 -125.34593487 122.73674583 C-124.01155834 121.39474368 -122.67758418 120.05234134 -121.34398174 118.70956993 C-117.72920703 115.07289627 -114.10792271 111.44277436 -110.48472881 107.81449056 C-108.22228173 105.5483976 -105.96113769 103.28101261 -103.70042706 101.01318741 C-95.81681308 93.10510499 -87.92751852 85.20273594 -80.03343487 77.30510521 C-72.66769433 69.93572078 -65.31521702 62.5532803 -57.96858501 55.16485077 C-51.66225358 48.82389734 -45.34640585 42.49252924 -39.02308941 36.16851372 C-35.24549388 32.39012328 -31.47202594 28.60781692 -27.70823956 24.8156662 C-24.17332707 21.25470856 -20.62679498 17.70575989 -17.07078838 14.16587067 C-15.76513242 12.86203941 -14.46377394 11.55388892 -13.16697979 10.24124336 C-11.40195791 8.4559616 -9.62238375 6.68662085 -7.83812237 4.92059898 C-7.32333324 4.39260989 -6.80854412 3.8646208 -6.27815533 3.32063204 C-2.77347781 -0.10222293 -2.77347781 -0.10222293 0 0 Z " fill="#4B88DA" transform="translate(286.2209348678589,182.0818576812744)"/>
<path d="M0 0 C1.73608398 1.09448242 1.73608398 1.09448242 3.43359375 2.66796875 C4.12066406 3.30331543 4.80773437 3.93866211 5.515625 4.59326172 C10.41402503 9.33858674 15.2700827 14.12303368 20.08422852 18.95385742 C21.95409753 20.82914563 23.82932899 22.69895465 25.70507812 24.56835938 C26.89615461 25.76009565 28.0869214 26.95214155 29.27734375 28.14453125 C30.11784523 28.98199638 30.11784523 28.98199638 30.97532654 29.83638 C34.31541525 33.19692577 36.16848882 35.26580996 36.625 40 C36.49690978 46.20744898 32.86676512 49.32254371 28.59375 53.453125 C26.72464519 55.26725614 24.89376276 57.11643824 23.0625 58.96875 C19.39713895 62.66842359 15.70629144 66.34136611 12 70 C8.55323 68.51657 6.32656699 66.56949812 3.69042969 63.91748047 C2.84986023 63.07675995 2.00929077 62.23603943 1.14324951 61.36984253 C0.24519592 60.46146637 -0.65285767 59.55309021 -1.578125 58.6171875 C-2.5046991 57.68778351 -3.43127319 56.75837952 -4.38592529 55.80081177 C-6.84315789 53.3359615 -9.29432361 50.86516334 -11.7442627 48.39306641 C-14.24773809 45.86909235 -16.75692063 43.35080612 -19.265625 40.83203125 C-24.18267525 35.89356403 -29.09333788 30.948788 -34 26 C-32.27287528 22.31175008 -30.18117557 19.93679635 -27.28125 17.05078125 C-26.34925781 16.12072266 -25.41726563 15.19066406 -24.45703125 14.23242188 C-23.97186035 13.75345459 -23.48668945 13.2744873 -22.98681641 12.78100586 C-21.49971045 11.31221402 -20.02082042 9.83551896 -18.54296875 8.35742188 C-8.65452322 -1.46947731 -8.65452322 -1.46947731 0 0 Z " fill="#4B88DA" transform="translate(335,141)"/>
</svg>
